<svg version="1.1" id="Layer_1" xmlns="http://www.w3.org/2000/svg" xmlns:xlink="http://www.w3.org/1999/xlink" x="0px" y="0px"
	 width="100%" viewBox="0 0 100 100" enable-background="new 0 0 100 100" xml:space="preserve">
<path fill="#7950F2" opacity="1.000000" stroke="none" 
	d="
M1.000000,23.000000 
	C1.000000,20.629442 1.000000,18.258884 1.468657,15.444172 
	C34.958210,15.000011 67.979103,15.000006 101.000000,15.000000 
	C101.000000,17.370558 101.000000,19.741116 100.767914,22.215145 
	C99.181709,23.228285 97.706726,24.000565 96.492233,25.068954 
	C84.764938,35.385418 73.010384,45.672897 61.412380,56.133595 
	C54.595226,62.282257 48.615116,63.014072 41.861618,57.235470 
	C30.117653,47.186771 18.692928,36.765724 7.036831,26.612757 
	C5.296225,25.096613 3.025490,24.189083 1.000000,23.000000 
z"/>
<path fill="#7950F2" opacity="1.000000" stroke="none" 
	d="
M1.000000,87.000000 
	C1.000000,84.629440 1.000000,82.258888 1.234092,79.784500 
	C12.480261,71.132454 23.492338,62.584229 34.445904,54.081425 
	C48.078083,67.315269 53.193249,68.175850 67.647957,54.055141 
	C75.534599,60.307140 83.383148,66.662025 91.391388,72.808853 
	C94.403625,75.120934 97.786240,76.950478 101.000000,79.000000 
	C101.000000,81.370560 101.000000,83.741112 100.531342,86.555801 
	C67.041786,86.999954 34.020893,86.999977 1.000000,87.000000 
z"/>
<path fill="#000000" opacity="1.000000" stroke="none" 
	d="
M101.000000,14.525872 
	C67.979103,15.000006 34.958210,15.000011 1.468657,15.000010 
	C1.000000,10.349740 1.000000,5.699480 1.000011,1.048973 
	C34.333363,1.048725 67.666702,1.048725 101.000000,1.048725 
	C101.000000,5.415548 101.000000,9.733646 101.000000,14.525872 
z"/>
<path fill="#000000" opacity="1.000000" stroke="none" 
	d="
M1.000000,87.474129 
	C34.020893,86.999977 67.041786,86.999954 100.531342,86.999969 
	C101.000000,91.650261 101.000000,96.300522 100.999985,100.951019 
	C67.666634,100.951263 34.333298,100.951263 1.000000,100.951263 
	C1.000000,96.584442 1.000000,92.266350 1.000000,87.474129 
z"/>
<path fill="#7950F2" opacity="1.000000" stroke="none" 
	d="
M101.000000,25.000000 
	C101.000000,41.687561 101.000000,58.375122 100.642471,75.526489 
	C90.246948,68.223068 80.208946,60.455841 69.695404,52.320652 
	C80.242538,43.115788 90.621269,34.057896 101.000000,25.000000 
z"/>
<path fill="#7950F2" opacity="1.000000" stroke="none" 
	d="
M1.000000,76.000000 
	C1.000000,59.312439 1.000000,42.624878 1.331871,25.536873 
	C11.765683,34.217587 21.867624,43.298740 32.012871,52.418827 
	C27.021194,56.379505 22.485193,60.110420 17.808249,63.655384 
	C12.268960,67.853981 6.608144,71.892242 1.000000,76.000000 
z"/>
<path fill="#000000" opacity="1.000000" stroke="none" 
	d="
M1.000000,76.375000 
	C6.608144,71.892242 12.268960,67.853981 17.808249,63.655384 
	C22.485193,60.110420 27.021194,56.379505 32.012871,52.418827 
	C21.867624,43.298740 11.765683,34.217587 1.331871,25.068214 
	C1.000000,24.555555 1.000000,24.111111 1.000000,23.333332 
	C3.025490,24.189083 5.296225,25.096613 7.036831,26.612757 
	C18.692928,36.765724 30.117653,47.186771 41.861618,57.235470 
	C48.615116,63.014072 54.595226,62.282257 61.412380,56.133595 
	C73.010384,45.672897 84.764938,35.385418 96.492233,25.068954 
	C97.706726,24.000565 99.181709,23.228285 100.767914,22.659307 
	C101.000000,23.444445 101.000000,23.888889 101.000000,24.666668 
	C90.621269,34.057896 80.242538,43.115788 69.695404,52.320652 
	C80.208946,60.455841 90.246948,68.223068 100.642471,75.995148 
	C101.000000,76.750000 101.000000,77.500000 101.000000,78.625000 
	C97.786240,76.950478 94.403625,75.120934 91.391388,72.808853 
	C83.383148,66.662025 75.534599,60.307140 67.647957,54.055141 
	C53.193249,68.175850 48.078083,67.315269 34.445904,54.081425 
	C23.492338,62.584229 12.480261,71.132454 1.234092,79.340340 
	C1.000000,78.250000 1.000000,77.500000 1.000000,76.375000 
z"/>
</svg>