<svg version="1.1" id="Layer_1" xmlns="http://www.w3.org/2000/svg" xmlns:xlink="http://www.w3.org/1999/xlink" x="0px" y="0px"
	 width="100%" viewBox="0 0 100 100" enable-background="new 0 0 100 100" xml:space="preserve">
<path fill="#000000" opacity="1.000000" stroke="none" 
	d="
M59.000000,101.000000 
	C39.333336,101.000000 20.166674,101.000000 1.000008,101.000000 
	C1.000005,67.666679 1.000005,34.333351 1.000003,1.000021 
	C34.333317,1.000014 67.666634,1.000014 100.999969,1.000007 
	C100.999977,34.333313 100.999977,67.666626 100.999985,100.999969 
	C87.166664,101.000000 73.333336,101.000000 59.000000,101.000000 
M45.007553,90.511116 
	C45.628876,91.466034 46.232361,92.433121 46.874477,93.373840 
	C50.402359,98.542305 51.872768,98.691910 55.089195,93.331779 
	C62.703445,80.642731 70.263702,67.911201 77.422829,54.962994 
	C81.578896,47.446201 84.045464,39.288929 83.005554,30.452301 
	C82.075493,22.549271 78.459755,16.189707 72.594658,10.816872 
	C65.707298,4.507565 57.690498,2.753299 48.601147,2.879773 
	C37.177174,3.038732 24.824041,11.707753 20.879351,22.701891 
	C16.765501,34.167492 19.182802,44.716694 24.473680,54.767887 
	C30.758625,66.707527 37.786621,78.256020 45.007553,90.511116 
z"/>
<path fill="#7950F2" opacity="1.000000" stroke="none" 
	d="
M44.750092,90.242569 
	C37.786621,78.256020 30.758625,66.707527 24.473680,54.767887 
	C19.182802,44.716694 16.765501,34.167492 20.879351,22.701891 
	C24.824041,11.707753 37.177174,3.038732 48.601147,2.879773 
	C57.690498,2.753299 65.707298,4.507565 72.594658,10.816872 
	C78.459755,16.189707 82.075493,22.549271 83.005554,30.452301 
	C84.045464,39.288929 81.578896,47.446201 77.422829,54.962994 
	C70.263702,67.911201 62.703445,80.642731 55.089195,93.331779 
	C51.872768,98.691910 50.402359,98.542305 46.874477,93.373840 
	C46.232361,92.433121 45.628876,91.466034 44.750092,90.242569 
M45.708797,20.762049 
	C39.091789,23.537420 35.724209,28.297050 35.964085,35.687515 
	C36.184223,42.469830 39.657543,46.656391 45.593613,49.198948 
	C51.109341,51.561462 57.843204,49.945221 62.238010,45.263855 
	C66.063911,41.188484 67.314919,34.162914 65.093140,29.229593 
	C61.736927,21.777336 57.026062,19.512180 45.708797,20.762049 
z"/>
<path fill="#000000" opacity="1.000000" stroke="none" 
	d="
M46.019630,20.484938 
	C57.026062,19.512180 61.736927,21.777336 65.093140,29.229593 
	C67.314919,34.162914 66.063911,41.188484 62.238010,45.263855 
	C57.843204,49.945221 51.109341,51.561462 45.593613,49.198948 
	C39.657543,46.656391 36.184223,42.469830 35.964085,35.687515 
	C35.724209,28.297050 39.091789,23.537420 46.019630,20.484938 
M43.006702,32.890438 
	C42.996143,41.846016 48.385925,45.788300 55.603943,42.104519 
	C58.410290,40.672279 60.498615,32.993172 58.827240,31.727497 
	C57.081470,31.727497 55.668472,31.727497 53.986050,31.727497 
	C54.131760,30.045429 54.252998,28.645901 54.383400,27.140589 
	C49.803833,26.921389 44.945053,25.985401 43.006702,32.890438 
z"/>
<path fill="#7950F3" opacity="1.000000" stroke="none" 
	d="
M43.024269,32.470375 
	C44.945053,25.985401 49.803833,26.921389 54.383400,27.140589 
	C54.252998,28.645901 54.131760,30.045429 53.986050,31.727497 
	C55.668472,31.727497 57.081470,31.727497 58.827240,31.727497 
	C60.498615,32.993172 58.410290,40.672279 55.603943,42.104519 
	C48.385925,45.788300 42.996143,41.846016 43.024269,32.470375 
z"/>
</svg>